<?xml version="1.0" encoding="utf-8"?>
<!-- Generator: Adobe Illustrator 16.0.0, SVG Export Plug-In . SVG Version: 6.00 Build 0)  -->
<!DOCTYPE svg PUBLIC "-//W3C//DTD SVG 1.1//EN" "http://www.w3.org/Graphics/SVG/1.1/DTD/svg11.dtd">
<svg version="1.1" id="Layer_1" xmlns="http://www.w3.org/2000/svg" xmlns:xlink="http://www.w3.org/1999/xlink" x="0px" y="0px"
	 width="1713.2px" height="1137.1px" viewBox="0 0 1713.2 1137.1" style="enable-background:new 0 0 1713.2 1137.1;"
	 xml:space="preserve">
<g>
	<path class="st1" d="M8.3,6.2c569.3,0,1138.7,0,1708,0c0,377,0,754,0,1131c-569.3,0-1138.7,0-1708,0C8.3,760.2,8.3,383.2,8.3,6.2z
		 M836.9,731.8c-17,2.3-33.1,5.4-47.6,13.9c-6.5,3.8-12.9,7.6-19.2,11.7c-11.8,7.7-23.6,15.5-35.3,23.6c-5.3,3.7-6.5,9.4-3.7,13.9
		c2.8,4.5,8.2,5.9,13.7,2.9c15.8-8.9,31.8-17.5,47-27.4c14.8-9.6,30.6-15.9,47.5-20.4c4.4-1.2,8.6-4.1,12.3-7c3.8-3,3-6.8-1.6-8.3
		C845.7,733.3,841,732.7,836.9,731.8z M552.5,932.2c0.7,3,0.9,6.4,2.3,9c1.1,2,3.9,4.2,5.9,4.2c1.9,0,4.2-2.4,5.8-4.2
		c1.3-1.6,2.1-3.8,2.6-5.9c2.3-10.5,7.3-20,14.8-27.3c9.8-9.6,20.9-17.9,31.3-26.9c7.3-6.3,14.9-12.3,21.6-19.1
		c4.7-4.7,3.7-11.7-0.8-15.6c-4.6-3.9-10.6-2.9-15.6,1.7c-8.7,8-17.3,16.1-26.6,23.3c-12.4,9.8-23.6,20.5-32.1,33.9
		C556.6,913.4,553.4,922.3,552.5,932.2z M1337.7,60.8c-0.1,0.2-0.1,0.3-0.2,0.5c-1.3,0.1-2.7,0.2-4,0.4c-3.6,0.6-6.4,2.2-6.8,6.2
		c-0.4,3.9,2.1,6.1,5.6,7.3c16.6,5.9,33.3,11.5,49.8,17.6c17.3,6.3,34.5,13,51.6,19.6c5.3,2,10.7,1.4,14.4-2.3c4-4.1,5-9,2.9-14.3
		c-2.1-5.3-6.1-8.2-11.8-8.5c-2.8-0.2-5.7,0-8.4-0.8c-23.9-6.6-47.7-13.3-71.5-20C1352.2,64.6,1345,62.8,1337.7,60.8z M237.9,1121
		c0,0.1,0,0.2,0.1,0.3c9.9-1.4,19.8-2.4,29.7-4.2c14.6-2.5,29.3-4.7,43.5-8.7c7-1.9,13.9-6.5,19.4-11.5c5.4-4.9,3.8-14.2-1.7-18.7
		c-5.4-4.3-13.6-3.9-17.3,2c-3.9,6.3-9.7,8.4-16,9.9c-17.7,4.1-35.4,8-53.1,12c-5,1.1-10.1,2.2-15,3.7c-4.3,1.3-6.6,5.4-5.8,9.3
		c0.9,4.2,3.8,5.4,7.8,5.3C232.2,1120.3,235.1,1120.8,237.9,1121z M1711.5,373.6c-0.7-12.8-4.8-24.1-11.5-34.5
		c-9.9-15.5-19.9-31.1-29.9-46.6c-3.6-5.6-9.5-7.4-14.6-4.8c-5.4,2.8-7.6,8.9-4.3,15.1c5.8,10.6,11.9,21.2,18.8,31.1
		c8.9,12.9,18.4,25.3,21.9,41.1c0.8,3.7,2,7.5,3.9,10.8c1.2,2.2,3.8,4.8,5.9,5c2.2,0.2,5.7-1.9,6.6-3.9
		C1710.1,382.7,1710.5,378,1711.5,373.6z M1238.7,55.6c10.7,0.2,16.1-3.8,16.7-10.2c0.6-6.5-4.3-12.2-11.6-13.2
		c-2.2-0.3-4.6,0.2-6.9,0.4c-2,0.1-4,0.5-5.9,0.2c-24-3.4-48-7.2-72.1-10.1c-7.4-0.9-15.2,0.2-22.7,1.3c-2.1,0.3-5.1,3.9-5.1,6.1
		c0,2.2,2.7,4.9,4.9,6.5c1.7,1.3,4.4,1.2,6.7,1.6c24.3,4,48.6,7.8,72.8,12C1224.2,51.8,1232.9,54.2,1238.7,55.6z M1488.4,723.3
		c7.2-2.3,13.4-4,19.5-6.2c23.3-8.2,45.3-19.3,67.1-30.8c8.5-4.5,16.9-9.4,24.8-14.8c6-4.1,6.9-10.4,3.1-15.2
		c-3.7-4.8-9.8-5-15.6-0.7c-22,16.1-45.7,29.2-70.3,40.7c-10.2,4.8-20.6,9.4-30.6,14.7c-2.1,1.1-4.2,4.7-4,6.9
		C1482.7,719.8,1486.2,721.4,1488.4,723.3z M1715.5,507.9c-1.1-7.1-5-12.1-11-12.7c-6.2-0.6-11.5,3.8-12.2,10.6
		c-1.7,15.8-7.4,30.3-12.7,45c-5.9,16.1-17.4,29.7-20,47.1c-0.3,2.3-0.1,5.9,1.3,6.9c1.6,1.2,5.2,0.9,7.2-0.1
		c2.2-1.1,3.7-3.7,5.2-5.9c2.7-4,4.8-8.5,7.8-12.2c10.1-12.4,17.5-26.5,23.1-41.2C1708.8,533.3,1711.7,520.4,1715.5,507.9z
		 M916.5,40.1c0.3-0.3,0.6-0.7,0.9-1c1.2-0.1,2.3-0.3,3.5-0.4c24.5-2.2,49-4.4,73.5-6.5c6.1-0.5,12.3-0.7,18.4-1.6
		c7.4-1.1,11.6-6.9,10.1-13.3c-1.6-6.6-8.3-10.1-15.2-8.4c-5.6,1.4-11.3,2.5-17.1,3.3c-22.8,3.4-45.7,6.6-68.5,10.1
		c-3.2,0.5-6.7,1.8-8.9,4c-1.9,1.8-3.4,5.7-2.8,8.1C910.9,36.7,914.3,38.2,916.5,40.1z M1523,164.6c0.1,5.3,3.4,8.9,9.5,11.6
		c4.8,2.1,9.9,4.3,13.9,7.7c17.2,14.6,38.9,19.2,59.3,26.6c3.6,1.3,7.1,0.4,9-3.2c1.9-3.6,1-7.2-1.9-9.5c-4.5-3.6-9.2-7.1-14.3-9.7
		c-14-7.3-28.9-12.8-40.6-24.1c-5.9-5.7-13.3-8.8-21.4-10.2C1529.1,152.3,1522.9,157.4,1523,164.6z M1007.4,736.5
		c5.8-0.6,14.2-1.1,22.6-2.3c4.8-0.7,8.1-3.9,9.1-8.8c0.8-4.1-0.8-7.6-4.2-10c-3.9-2.7-7.9-2.9-12.3-0.8c-2.8,1.3-5.8,2.5-8.8,2.8
		c-6.3,0.6-12.6,0.9-18.9,0.6c-21.4-1.1-42.8-2.5-64.2-3.7c-3.7-0.2-6,1.9-6.6,5.5c-0.7,4.4,1.3,7.8,5.1,9.3c4.9,2,10,4.1,15.2,4.4
		C964.5,734.8,984.6,735.5,1007.4,736.5z M442.4,1067.6c10-0.1,18.9-3.7,26.9-9.4c16.1-11.6,26.7-28.1,38.5-43.5
		c5.1-6.6,1.9-15.9-5.1-19.1c-8.3-3.7-18.8,2.6-19.6,11.6c-0.1,1.3-0.1,2.8-0.7,3.8c-10.5,17.8-20.7,36-42.6,42.4
		c-4.1,1.2-7.4,3.9-6.3,8.8C434.4,1066.9,438.4,1067.6,442.4,1067.6z M734.8,49.7c0,0,0,0.1,0,0.1c4.8-0.2,9.7-0.3,14.5-0.8
		c23.8-2.4,47.7-5,71.5-7.5c3-0.3,6-0.7,8.8-1.6c5-1.5,7.7-6.1,6.7-10.8c-1-4.5-4.9-7.4-10-7.1c-2.5,0.2-4.9,0.8-7.4,1.3
		C786,28.9,753.2,34.5,720.4,40c-3.3,0.6-6.7,1.2-6.5,5.3c0.3,4.4,3.9,5,7.4,4.9C725.8,50.3,730.3,49.9,734.8,49.7z M1397.1,747.4
		c6.8,0.1,12.9-5.2,12.4-12.9c-0.5-7.3-6.3-11.2-15.2-10.3c-5.5,0.5-11,0.9-16.4,1.3c-15.9,0.9-31.9,1.7-47.8,2.9
		c-3.5,0.3-7.5,1.3-10.3,3.3c-2.3,1.7-4,5.3-4.2,8.2c-0.2,3.7,3.2,5.7,6.7,6.2c2.3,0.3,4.6,0.1,7,0.1c16-0.1,31.9-0.3,47.9-0.2
		C1383.1,745.9,1389,746.7,1397.1,747.4z M1218.6,750.3c7.4,0.1,12.4-3.6,13.6-9.5c1.3-6.2-2.2-12.6-8.2-14.9
		c-5.5-2-11-2.6-16.1,1.4c-0.8,0.7-2.1,1.1-3.2,1.1c-21.3-1.6-43,0.9-63.9-6.1c-3.5-1.2-7.3-1.2-8.9,3c-1.6,4,1.2,6.6,4.3,7.8
		c7.5,3,15.1,6.5,23,7.9c18.4,3.5,37.1,6,55.7,8.8C1216.3,750.2,1217.8,750.2,1218.6,750.3z M77.8,1133.2c0,0.1,0,0.3,0,0.4
		c8.6-0.4,17.3-0.7,25.9-1.3c5.7-0.4,9.2-4.9,8.6-10.2c-0.5-5-5.1-8.4-10.3-7.9c-14.2,1.3-28.5,2.5-42.7,3.9
		c-13.8,1.3-27.5,2.7-41.3,4.1c-3.9,0.4-7.4,2-7.4,6.5c0,4.5,3.3,6.3,7.3,6.6c3.8,0.3,7.7,0.5,11.5,0.4
		C45.6,1135,61.7,1134.1,77.8,1133.2z"/>
	<path class="st0" d="M836.9,731.8c4.1,0.9,8.8,1.5,13.1,2.9c4.6,1.5,5.4,5.3,1.6,8.3c-3.7,2.9-7.9,5.8-12.3,7
		c-16.9,4.5-32.7,10.8-47.5,20.4c-15.2,9.9-31.2,18.5-47,27.4c-5.4,3.1-10.8,1.7-13.7-2.9c-2.8-4.6-1.6-10.3,3.7-13.9
		c11.6-8,23.4-15.9,35.3-23.6c6.3-4.1,12.7-7.9,19.2-11.7C803.8,737.2,819.9,734.1,836.9,731.8z"/>
	<path class="st0" d="M552.5,932.2c0.9-9.9,4.1-18.7,9.3-26.8c8.5-13.3,19.7-24.1,32.1-33.9c9.2-7.3,17.9-15.3,26.6-23.3
		c5-4.6,11-5.6,15.6-1.7c4.6,3.9,5.5,10.9,0.8,15.6c-6.8,6.8-14.3,12.9-21.6,19.1c-10.5,9-21.5,17.3-31.3,26.9
		c-7.5,7.3-12.5,16.8-14.8,27.3c-0.5,2.1-1.3,4.3-2.6,5.9c-1.5,1.8-3.8,4.3-5.8,4.2c-2.1,0-4.8-2.2-5.9-4.2
		C553.4,938.6,553.2,935.2,552.5,932.2z"/>
	<path class="st0" d="M1337.7,60.8c7.2,1.9,14.5,3.7,21.6,5.7c23.8,6.6,47.7,13.4,71.5,20c2.7,0.7,5.6,0.6,8.4,0.8
		c5.7,0.4,9.7,3.2,11.8,8.5c2.1,5.3,1.1,10.2-2.9,14.3c-3.6,3.7-9.1,4.3-14.4,2.3c-17.2-6.6-34.3-13.3-51.6-19.6
		c-16.5-6.1-33.2-11.7-49.8-17.6c-3.4-1.2-5.9-3.4-5.6-7.3c0.4-3.9,3.2-5.6,6.8-6.2c1.3-0.2,2.6-0.3,4-0.4
		C1337.6,61.2,1337.7,61,1337.7,60.8z"/>
	<path class="st0" d="M237.9,1121c-2.8-0.2-5.6-0.7-8.5-0.6c-4,0.1-6.9-1-7.8-5.3c-0.8-3.9,1.5-8,5.8-9.3c4.9-1.5,10-2.5,15-3.7
		c17.7-4,35.4-7.9,53.1-12c6.3-1.5,12.1-3.6,16-9.9c3.7-5.9,11.9-6.3,17.3-2c5.5,4.4,7.2,13.8,1.7,18.7c-5.5,5-12.3,9.6-19.4,11.5
		c-14.2,3.9-28.9,6.1-43.5,8.7c-9.8,1.7-19.8,2.8-29.7,4.2C237.9,1121.2,237.9,1121.1,237.9,1121z"/>
	<path class="st0" d="M1711.5,373.6c-1,4.4-1.4,9.1-3.2,13.2c-0.9,2-4.5,4.1-6.6,3.9c-2.2-0.2-4.7-2.8-5.9-5
		c-1.8-3.3-3.1-7-3.9-10.8c-3.5-15.7-13-28.2-21.9-41.1c-6.9-9.9-13-20.5-18.8-31.1c-3.3-6.1-1.1-12.3,4.3-15.1
		c5.1-2.6,11-0.8,14.6,4.8c10,15.5,20,31,29.9,46.6C1706.6,349.5,1710.8,360.7,1711.5,373.6z"/>
	<path class="st0" d="M1238.7,55.6c-5.8-1.4-14.5-3.8-23.3-5.3c-24.2-4.2-48.5-8-72.8-12c-2.3-0.4-5-0.4-6.7-1.6
		c-2.2-1.6-4.9-4.3-4.9-6.5c0-2.2,3-5.8,5.1-6.1c7.5-1.1,15.3-2.2,22.7-1.3c24.1,2.9,48.1,6.7,72.1,10.1c1.9,0.3,3.9-0.1,5.9-0.2
		c2.3-0.1,4.7-0.7,6.9-0.4c7.4,1,12.3,6.7,11.6,13.2C1254.8,51.7,1249.4,55.8,1238.7,55.6z"/>
	<path class="st0" d="M1488.4,723.3c-2.2-1.8-5.7-3.4-5.9-5.3c-0.2-2.2,1.9-5.8,4-6.9c10-5.3,20.4-9.9,30.6-14.7
		c24.6-11.5,48.3-24.7,70.3-40.7c5.8-4.2,11.8-4,15.6,0.7c3.7,4.7,2.9,11.1-3.1,15.2c-8,5.4-16.3,10.3-24.8,14.8
		c-21.8,11.6-43.8,22.6-67.1,30.8C1501.8,719.2,1495.6,721,1488.4,723.3z"/>
	<path class="st0" d="M1715.5,507.9c-3.7,12.6-6.7,25.4-11.4,37.6c-5.7,14.8-13,28.8-23.1,41.2c-3,3.7-5.1,8.2-7.8,12.2
		c-1.5,2.2-3,4.7-5.2,5.9c-2,1-5.6,1.3-7.2,0.1c-1.4-1.1-1.6-4.6-1.3-6.9c2.6-17.4,14.2-31.1,20-47.1c5.4-14.7,11-29.3,12.7-45
		c0.7-6.9,6-11.2,12.2-10.6C1710.4,495.7,1714.4,500.7,1715.5,507.9z"/>
	<path class="st0" d="M916.5,40.1c-2.2-1.9-5.7-3.5-6.3-5.8c-0.6-2.4,0.9-6.2,2.8-8.1c2.2-2.1,5.8-3.5,8.9-4
		c22.8-3.5,45.7-6.7,68.5-10.1c5.7-0.9,11.5-1.9,17.1-3.3c6.9-1.7,13.6,1.8,15.2,8.4c1.6,6.4-2.6,12.2-10.1,13.3
		c-6.1,0.9-12.2,1.1-18.4,1.6c-24.5,2.2-49,4.4-73.5,6.5c-1.2,0.1-2.3,0.3-3.5,0.4C917.1,39.5,916.8,39.8,916.5,40.1z"/>
	<path class="st0" d="M1523,164.6c-0.1-7.2,6.1-12.3,13.5-10.9c8,1.4,15.5,4.5,21.4,10.2c11.7,11.3,26.6,16.8,40.6,24.1
		c5.1,2.6,9.8,6.1,14.3,9.7c2.9,2.3,3.8,6,1.9,9.5c-2,3.6-5.4,4.6-9,3.2c-20.4-7.5-42-12-59.3-26.6c-4-3.4-9-5.5-13.9-7.7
		C1526.4,173.5,1523.1,169.9,1523,164.6z"/>
	<path class="st0" d="M1007.4,736.5c-22.8-1-43-1.7-63-3c-5.1-0.3-10.3-2.5-15.2-4.4c-3.8-1.5-5.9-4.9-5.1-9.3
		c0.6-3.6,2.9-5.7,6.6-5.5c21.4,1.2,42.8,2.6,64.2,3.7c6.3,0.3,12.6,0,18.9-0.6c3-0.3,6.1-1.5,8.8-2.8c4.4-2.1,8.4-1.9,12.3,0.8
		c3.4,2.4,5,5.9,4.2,10c-0.9,5-4.3,8.1-9.1,8.8C1021.7,735.4,1013.2,735.9,1007.4,736.5z"/>
	<path class="st0" d="M442.4,1067.6c-4.1,0-8-0.7-9-5.3c-1.1-4.9,2.2-7.6,6.3-8.8c21.9-6.4,32.1-24.6,42.6-42.4
		c0.6-1.1,0.6-2.5,0.7-3.8c0.8-9.1,11.3-15.3,19.6-11.6c7,3.1,10.2,12.4,5.1,19.1c-11.8,15.4-22.4,31.9-38.5,43.5
		C461.3,1063.9,452.4,1067.5,442.4,1067.6z"/>
	<path class="st0" d="M734.8,49.7c-4.5,0.2-9,0.6-13.5,0.6c-3.5,0-7.1-0.6-7.4-4.9c-0.3-4.2,3.2-4.8,6.5-5.3
		c32.8-5.5,65.6-11.1,98.4-16.7c2.5-0.4,4.9-1.1,7.4-1.3c5.1-0.3,9.1,2.6,10,7.1c1,4.7-1.6,9.3-6.7,10.8c-2.8,0.9-5.9,1.3-8.8,1.6
		c-23.8,2.6-47.7,5.1-71.5,7.5c-4.8,0.5-9.6,0.5-14.5,0.8C734.8,49.8,734.8,49.7,734.8,49.7z"/>
	<path class="st0" d="M1397.1,747.4c-8-0.6-14-1.5-20-1.5c-16-0.1-31.9,0.1-47.9,0.2c-2.3,0-4.7,0.2-7-0.1c-3.6-0.5-6.9-2.4-6.7-6.2
		c0.2-2.9,1.9-6.5,4.2-8.2c2.8-2,6.7-3.1,10.3-3.3c15.9-1.2,31.9-1.9,47.8-2.9c5.5-0.3,11-0.7,16.4-1.3c8.9-0.9,14.7,3,15.2,10.3
		C1409.9,742.1,1403.9,747.5,1397.1,747.4z"/>
	<path class="st0" d="M1218.6,750.3c-0.8-0.1-2.3-0.2-3.8-0.4c-18.6-2.9-37.2-5.3-55.7-8.8c-7.9-1.5-15.5-4.9-23-7.9
		c-3.1-1.2-5.9-3.8-4.3-7.8c1.7-4.2,5.5-4.1,8.9-3c20.8,7,42.5,4.6,63.9,6.1c1,0.1,2.3-0.4,3.2-1.1c5.1-3.9,10.6-3.4,16.1-1.4
		c6.1,2.2,9.5,8.7,8.2,14.9C1231,746.7,1226,750.4,1218.6,750.3z"/>
	<path class="st0" d="M77.8,1133.2c-16.1,0.9-32.3,1.8-48.4,2.5c-3.8,0.2-7.7-0.1-11.5-0.4c-4.1-0.3-7.3-2.1-7.3-6.6
		c0-4.6,3.5-6.1,7.4-6.5c13.8-1.4,27.5-2.8,41.3-4.1c14.2-1.3,28.5-2.5,42.7-3.9c5.2-0.5,9.8,2.9,10.3,7.9c0.6,5.3-3,9.8-8.6,10.2
		c-8.6,0.6-17.3,0.9-25.9,1.3C77.9,1133.5,77.8,1133.4,77.8,1133.2z"/>
</g>
</svg>
